<?xml version="1.0" standalone="no"?>
<!DOCTYPE svg PUBLIC "-//W3C//DTD SVG 20010904//EN"
 "http://www.w3.org/TR/2001/REC-SVG-20010904/DTD/svg10.dtd">
<svg version="1.0" xmlns="http://www.w3.org/2000/svg"
 width="512.000000pt" height="512.000000pt" viewBox="0 0 512.000000 512.000000"
 preserveAspectRatio="xMidYMid meet">
<metadata>
Created by potrace 1.14, written by Peter Selinger 2001-2017
</metadata>
<g transform="translate(0.000000,512.000000) scale(0.100000,-0.100000)"
fill="#000000" stroke="none">
<path d="M2530 4838 c-365 -43 -509 -71 -699 -134 -584 -195 -1077 -629 -1352
-1189 -111 -228 -172 -433 -204 -685 -19 -158 -19 -244 1 -422 46 -409 183
-675 430 -841 l64 -42 4 -115 c4 -130 19 -186 77 -304 129 -259 432 -538 719
-661 279 -119 547 -169 915 -169 250 0 352 10 575 54 436 87 792 287 1125 632
403 417 620 906 665 1496 37 480 -87 909 -341 1177 -42 45 -52 65 -92 185 -92
281 -244 516 -402 625 -48 33 -143 69 -154 59 -3 -2 5 -14 17 -27 54 -57 83
-172 58 -230 -30 -73 -86 -39 -150 92 -97 199 -257 329 -509 418 -207 72 -529
107 -747 81z m-332 -284 c107 -37 107 -37 287 -38 180 -1 180 -1 247 -33 76
-36 148 -98 190 -162 15 -25 28 -47 28 -51 0 -3 -57 -6 -127 -8 -289 -6 -549
-69 -799 -195 -237 -119 -457 -305 -527 -446 -57 -114 -49 -130 24 -49 213
237 580 388 818 337 58 -12 114 -47 119 -73 2 -10 -6 -24 -18 -33 -13 -9 -20
-23 -18 -36 3 -20 11 -23 90 -29 49 -3 110 -11 136 -17 78 -16 222 -72 222
-85 0 -7 -27 -52 -61 -102 -193 -283 -388 -448 -545 -460 -108 -9 -165 41
-172 151 -2 36 -5 65 -7 65 -1 0 -45 -23 -96 -51 -224 -123 -417 -273 -571
-442 -167 -184 -270 -282 -322 -306 -97 -45 -214 -51 -291 -14 -30 14 -37 26
-62 102 -24 73 -28 102 -28 196 0 103 2 114 31 176 51 108 120 147 192 110 76
-39 143 -19 195 56 42 61 58 120 67 251 11 144 22 212 56 342 48 185 115 343
199 470 91 137 266 285 429 365 119 58 164 60 314 9z m2043 -2214 c19 -107 17
-345 -5 -452 -20 -105 -75 -266 -121 -358 -129 -257 -417 -565 -616 -660 -212
-101 -368 -103 -457 -6 -52 56 -67 108 -66 221 0 105 21 191 70 294 77 165
170 263 349 368 176 104 317 199 430 290 111 89 277 257 345 346 50 67 52 66
71 -43z m-733 -169 c8 -77 -58 -179 -263 -406 -154 -172 -241 -287 -313 -417
-84 -152 -115 -249 -115 -363 0 -115 21 -165 108 -256 36 -37 65 -76 65 -86 0
-41 -61 -90 -142 -117 -164 -53 -281 -68 -343 -42 -66 28 -75 64 -61 256 l8
105 -30 46 c-45 69 -125 103 -199 83 -31 -9 -29 -19 10 -43 64 -39 71 -89 27
-177 -44 -90 -119 -167 -198 -206 -63 -31 -72 -33 -177 -33 l-111 0 -66 43
c-88 57 -178 153 -218 232 -42 81 -52 194 -26 282 73 251 437 505 843 587 153
32 291 26 315 -12 4 -7 8 -35 8 -63 0 -65 23 -89 82 -87 104 5 194 84 402 352
136 176 238 287 304 331 60 39 86 37 90 -9z"/>
</g>
</svg>
