<svg width="307" height="305" viewBox="0 0 307 305" fill="none" xmlns="http://www.w3.org/2000/svg">
<path d="M34.6442 157.889C47.7496 186.444 35.6926 188.54 24.422 170.201C13.1514 151.863 1.35655 71.9619 62.4276 33.714C92.4284 14.9249 119.829 6.99278 126.12 11.1843C132.41 15.3758 109.554 11.1844 85.2309 36.5957C70.5529 51.9306 62.4276 82.7027 62.4276 98.683C62.4276 114.663 52.2054 124.094 44.8664 118.593C37.5274 113.092 21.5388 129.334 34.6442 157.889Z" fill="#F5D7FF"/>
<path d="M143.419 72.2227C143.419 68.5916 148.399 68.7988 145.778 65.9354C139.559 59.142 121.664 59.9101 104.365 68.7988C87.0658 77.6875 80.4285 89.428 79.7268 88.727C79.025 88.026 80.5807 74.3185 106.724 57.5523C132.867 40.7861 159.932 37.3804 183.259 38.6903C206.078 39.9716 243.829 40.7861 278.142 75.6284C343.931 142.431 277.094 257.613 215.498 284.944C153.903 312.275 96.2395 297.781 92.8321 288.874C89.4247 279.967 112.478 298.567 128.479 278.919C144.479 259.271 125.071 260.266 129.265 257.961C134.769 254.935 144.729 259.009 145.778 268.178C146.826 277.347 134.507 299.566 171.989 287.302C217.15 272.525 281.863 227.048 262.678 155.53C249.847 107.699 203.179 98.6206 187.191 87.6791C158.097 67.7692 143.419 75.8539 143.419 72.2227Z" fill="#F5D7FF"/>
<path fill-rule="evenodd" clip-rule="evenodd" d="M239.088 22.4486C251.669 34.7613 243.02 53.0993 235.157 34.2373C227.293 15.3753 197.151 -10.036 123.499 4.11052C49.8466 18.257 1.35664 84.2741 0.0461023 143.218C-1.18929 198.782 22.7298 213.84 32.5026 219.993C33.0971 220.367 33.6392 220.708 34.1201 221.024C33.0716 226.525 29.4021 251.413 67.1456 281.015C104.889 310.618 172.775 308.523 210.78 293.328C248.786 278.134 284.957 241.195 298.849 196.136C312.74 151.077 306.908 101.499 280.485 78.0849C301.47 98.8135 315.099 163.783 275.521 216.308C276.832 210.807 273.242 200.149 266.085 212.379C257.96 226.263 234.37 262.939 201.607 268.965C168.843 274.99 177.231 223.73 205.276 207.925C233.322 192.12 270.882 167.319 280.54 119.116C290.199 70.9135 258.222 21.6626 239.088 22.4486ZM155.738 104.446C138.434 123.049 119.043 121.998 121.664 103.136C92.9712 117.408 80.1787 131.951 70.7969 142.617C61.7526 152.899 55.8779 159.577 41.9832 158.936C26.781 158.235 17.3451 134.311 18.6557 114.139C19.9662 93.9672 28.0915 57.8151 56.9233 39.2151C85.7551 20.6151 111.966 14.3277 123.761 17.4714C126.227 18.1287 127.92 18.8178 129.481 19.4529C133.812 21.216 137.123 22.5635 153.117 21.663C174.872 20.438 204.228 52.3137 155.738 104.446ZM170.678 220.238C175.764 217.624 181.978 209.535 188.694 200.791L188.694 200.791C194.092 193.763 199.815 186.312 205.538 180.942C218.382 168.892 218.33 178.723 213.402 186.706C209.971 192.263 204.832 197.927 199.334 203.986L199.334 203.986C192.65 211.353 185.435 219.304 180.114 228.359C174.081 238.627 167.533 250.627 170.678 263.726C171.917 268.883 175.227 271.847 177.874 274.218C181.951 277.867 184.454 280.109 175.396 286.779C160.456 297.782 130.313 303.142 103.054 289.137C75.7951 275.133 69.7666 252.199 93.8805 231.503C117.994 210.807 159.145 205.568 157.573 214.475C156 223.382 161.504 224.954 170.678 220.238Z" fill="#F900D1"/>
</svg>
