<svg xmlns="http://www.w3.org/2000/svg" fill="white" viewBox="0 0 50 50"><path d="M11.611 19.406c-.951 0-4.424-2.727-7.904-6.207-.275-.276-.688-.366-1.055-.231-.366.136-.62.472-.649.862-.045.59-.382 5.83 1.671 8.045.31.334.664.591 1.052.765-.389 1.45-.83 3.973.24 5.506.295.423.798.906 1.624 1.132.036 1.113.306 2.956 1.542 4.435.969 1.159 2.324 1.868 4.035 2.114-.778-1.987-.916-4.205-.359-6.404C10.717 28.743 9 27.159 9 23.906c0-.552.447-1 1-1s1 .448 1 1c0 3.242 2.293 4.043 2.316 4.051.251.084.459.264.578.501.118.237.138.512.054.764-1.276 3.83.29 6.607 1.022 7.624.902 1.251 2.091 2.06 3.029 2.06 6 0 6-7.008 6-10C24 26.049 22.793 19.406 11.611 19.406zM47.958 13.829c-.029-.39-.283-.726-.649-.862-.368-.135-.78-.045-1.055.231-3.48 3.48-6.953 6.207-7.904 6.207-11.182 0-12.389 6.644-12.389 9.5 0 2.992 0 10 6 10 .033 0 .065-.005.098-.006.929-.032 2.086-.828 2.97-2.054.732-1.017 2.299-3.794 1.022-7.624-.175-.524.108-1.09.632-1.265C36.77 27.926 39 27.093 39 23.906c0-.552.447-1 1-1s1 .448 1 1c0 3.253-1.717 4.837-2.808 5.515.556 2.197.418 4.411-.357 6.396 1.691-.252 3.033-.956 3.993-2.106 1.236-1.479 1.506-3.322 1.542-4.435.826-.226 1.329-.708 1.624-1.132 1.07-1.533.629-4.056.24-5.506.388-.174.742-.43 1.052-.765C48.34 19.66 48.003 14.42 47.958 13.829z"></path></svg>