
<svg version="1.1" xmlns="http://www.w3.org/2000/svg" xmlns:xlink="http://www.w3.org/1999/xlink" viewBox="0 0 152 172"><g transform="translate(4.3,4.3) scale(0.95,0.95)"><g fill="none" fill-rule="nonzero" stroke="none" stroke-width="none" stroke-linecap="butt" stroke-linejoin="none" stroke-miterlimit="10" stroke-dasharray="" stroke-dashoffset="0" font-family="none" font-weight="none" font-size="none" text-anchor="none" style="mix-blend-mode: normal"><g fill="#000000" stroke="#ffffff" stroke-width="9" stroke-linejoin="round"><path d="M148.48163,48.96735c0.70204,37.9102 1.7551,90.03673 -61.42857,111.62449h-2.28163c-63.00816,-21.76327 -61.9551,-73.71429 -61.25306,-111.8c0.17551,-4.03673 0.17551,-7.89796 0.17551,-11.75918c0,-1.93863 1.57157,-3.5102 3.5102,-3.5102c23.34286,0 41.2449,-6.8449 56.33878,-21.23673c0.63158,-0.68836 1.52294,-1.08022 2.45714,-1.08022c0.9342,0 1.82556,0.39187 2.45714,1.08022c15.09388,14.39184 32.99592,21.23673 56.33878,21.23673c1.93863,0 3.5102,1.57157 3.5102,3.5102c0,3.86122 0,7.72245 0.17551,11.93469zM110.57143,140.93469l-80.20816,-80.38367c-0.17551,35.10204 4.38776,74.76735 55.63673,93.02041c8.7648,-2.98697 17.04356,-7.24462 24.57143,-12.63673zM133.38776,112.85306l-76.52245,-76.52245c-8.49679,2.53509 -17.28795,3.95111 -26.15102,4.21224c0,2.63265 -0.17551,5.61633 -0.17551,8.42449v1.93061l85.64898,85.64898c7.36693,-6.57241 13.23307,-14.65332 17.2,-23.69388zM141.46122,48.96735c0,-2.80816 -0.17551,-5.61633 -0.17551,-8.42449c-22.46531,-0.70204 -40.19184,-7.37143 -55.28571,-21.06122c-6.43466,5.97326 -13.8579,10.78352 -21.93878,14.21633l71.95918,71.95918c6.14286,-18.25306 5.79184,-38.43673 5.44082,-56.6898z"></path></g><path d="M0,172v-172h172v172z" fill="none" stroke="none" stroke-width="1" stroke-linejoin="miter"></path><g fill="#ffffff" stroke="none" stroke-width="1" stroke-linejoin="miter"><path d="M148.30612,37.03265c0,-1.93863 -1.57157,-3.5102 -3.5102,-3.5102c-23.34286,0 -41.2449,-6.8449 -56.33878,-21.23673c-0.63158,-0.68836 -1.52294,-1.08022 -2.45714,-1.08022c-0.9342,0 -1.82556,0.39187 -2.45714,1.08022c-15.09388,14.39184 -32.99592,21.23673 -56.33878,21.23673c-1.93863,0 -3.5102,1.57157 -3.5102,3.5102c0,3.86122 0,7.72245 -0.17551,11.75918c-0.70204,38.08571 -1.7551,90.03673 61.25306,111.8h2.28163c63.18367,-21.58776 62.13061,-73.71429 61.42857,-111.62449c-0.17551,-4.21224 -0.17551,-8.07347 -0.17551,-11.93469zM86,153.57143c-51.24898,-18.25306 -55.81224,-57.91837 -55.63673,-93.02041l80.20816,80.38367c-7.52787,5.39211 -15.80663,9.64976 -24.57143,12.63673zM116.18776,136.54694l-85.64898,-85.64898v-1.93061c0,-2.80816 0.17551,-5.79184 0.17551,-8.42449c8.86307,-0.26113 17.65423,-1.67716 26.15102,-4.21224l76.52245,76.52245c-3.96693,9.04055 -9.83307,17.12147 -17.2,23.69388zM136.02041,105.65714l-71.95918,-71.95918c8.08087,-3.43281 15.50411,-8.24307 21.93878,-14.21633c15.09388,13.6898 32.82041,20.35918 55.28571,21.06122c0,2.80816 0.17551,5.61633 0.17551,8.42449c0.35102,18.25306 0.70204,38.43673 -5.44082,56.6898z"></path></g><path d="" fill="none" stroke="none" stroke-width="1" stroke-linejoin="miter"></path><path d="" fill="none" stroke="none" stroke-width="1" stroke-linejoin="miter"></path><path d="" fill="none" stroke="none" stroke-width="1" stroke-linejoin="miter"></path><path d="" fill="none" stroke="none" stroke-width="1" stroke-linejoin="miter"></path></g></g></svg>