<svg width="698" height="814" viewBox="0 0 698 814" fill="none" xmlns="http://www.w3.org/2000/svg">
<path d="M-2.60506e-05 595.969L-9.53045e-06 218.031C-9.08144e-06 207.759 5.42889 198.243 14.2896 193.01L334.206 4.04101C343.338 -1.34702 354.662 -1.34702 363.774 4.04101L683.691 193.01C692.571 198.243 698 207.759 698 218.031L698 595.969C698 606.241 692.571 615.757 683.71 620.99L363.794 809.959C354.662 815.347 343.338 815.347 334.226 809.959L14.3089 620.99C5.42881 615.757 -2.64996e-05 606.241 -2.60506e-05 595.969Z" fill="#313660"/>
<path d="M349 133L117 236.091C117 236.091 117 339.182 117 390.727C117 592.528 282.983 686.753 349 700C415.017 686.753 581 592.528 581 390.727C581 339.182 581 236.091 581 236.091L349 133Z" fill="#2D5E99"/>
</svg>
