<svg width="763" height="759" viewBox="0 0 763 759" fill="none" xmlns="http://www.w3.org/2000/svg">
<path d="M86.2797 393.952C118.918 465.2 88.8908 470.429 60.8219 424.673C32.753 378.917 3.37865 179.553 155.473 84.1193C230.188 37.2382 298.428 17.4465 314.094 27.9049C329.761 38.3633 272.838 27.905 212.263 91.3095C175.708 129.572 155.473 206.353 155.473 246.226C155.473 286.098 130.015 309.63 111.738 295.903C93.4601 282.177 53.6415 322.703 86.2797 393.952Z" fill="#a7a7a7"/>
<path d="M357.177 180.206C357.177 171.146 369.579 171.663 363.052 164.519C347.565 147.568 302.997 149.485 259.915 171.663C216.833 193.842 200.303 223.136 198.555 221.387C196.808 219.638 200.682 185.436 265.79 143.602C330.898 101.768 398.301 93.2704 456.397 96.5387C513.226 99.7357 607.242 101.768 692.698 188.704C856.542 355.386 690.087 642.78 536.687 710.974C383.287 779.168 239.679 743.003 231.193 720.779C222.707 698.554 280.12 744.964 319.969 695.94C359.818 646.916 311.483 649.4 321.928 643.647C335.636 636.098 360.441 646.262 363.052 669.14C365.663 692.018 334.983 747.458 428.328 716.857C540.799 679.986 701.964 566.516 654.185 388.069C622.23 268.724 506.007 246.072 466.188 218.772C393.732 169.094 357.177 189.267 357.177 180.206Z" fill="#a7a7a7"/>
<path fill-rule="evenodd" clip-rule="evenodd" d="M595.436 56.012C626.769 86.7338 605.228 132.49 585.645 85.4265C566.062 38.3634 490.993 -25.0411 307.567 10.2563C124.14 45.5536 3.37865 210.275 0.11482 357.347C-2.96187 495.986 56.6075 533.559 80.9461 548.91C82.4265 549.844 83.7765 550.695 84.9742 551.482C82.3631 565.209 73.2243 627.307 167.222 701.17C261.22 775.032 430.286 769.803 524.937 731.891C619.588 693.979 709.67 601.814 744.266 489.385C778.863 376.956 764.339 253.252 698.532 194.832C750.794 246.552 784.737 408.659 686.17 539.716C689.434 525.99 680.495 499.396 662.671 529.912C642.435 564.555 583.686 656.067 502.091 671.101C420.495 686.135 441.383 558.234 511.229 518.799C581.075 479.365 674.616 417.483 698.671 297.211C722.725 176.938 643.088 54.0511 595.436 56.012ZM387.857 260.606C344.764 307.023 296.47 304.401 302.997 257.338C231.54 292.949 199.681 329.235 176.316 355.847C153.792 381.501 139.161 398.165 104.557 396.566C66.6968 394.816 43.1973 335.122 46.4611 284.791C49.7249 234.46 69.9606 144.255 141.765 97.8459C213.569 51.4365 278.845 35.7488 308.22 43.5926C314.362 45.2327 318.578 46.952 322.464 48.5368C333.253 52.9359 341.499 56.2982 381.329 54.0511C435.509 50.9946 508.618 130.529 387.857 260.606ZM469.931 500.998L469.932 500.998C483.376 483.462 497.629 464.872 511.882 451.473C543.867 421.405 543.738 445.936 531.465 465.853C522.921 479.719 510.123 493.851 496.43 508.97C479.783 527.351 461.816 547.19 448.564 569.784C433.538 595.404 417.231 625.345 425.065 658.028C428.149 670.896 436.394 678.292 442.986 684.206C453.138 693.313 459.372 698.905 436.814 715.549C399.607 743.003 324.539 756.375 256.651 721.432C188.764 686.489 173.75 629.267 233.804 577.628C293.859 525.99 396.343 512.916 392.426 535.141C388.509 557.365 402.218 561.287 425.065 549.521C437.731 542.998 453.205 522.815 469.931 500.998Z" fill="white"/>
</svg>
