<svg width="100" height="100" viewBox="0 0 100 100" fill="none" xmlns="http://www.w3.org/2000/svg">
<mask id="mask0" mask-type="alpha" maskUnits="userSpaceOnUse" x="0" y="0" width="100" height="100">
<rect width="100" height="100" fill="white"/>
</mask>
<g mask="url(#mask0)">
<path d="M73.7381 89.202C71.0843 88.2497 65.4035 84.6063 65.0303 83.5299C64.7815 82.9088 64.4498 83.0744 63.0814 84.3579C62.2106 85.2274 61.0081 86.1796 60.469 86.428C59.225 87.049 56.8615 87.049 54.9955 86.428L53.5856 85.8898L56.82 84.1923C61.7545 81.584 61.8374 81.4184 59.4323 79.2655C58.3128 78.2719 56.6126 76.9884 55.7004 76.3674C54.7467 75.7463 53.0466 74.3801 51.927 73.3036C50.8074 72.2272 49.6878 71.3577 49.439 71.3577C49.2317 71.3577 48.1121 72.3099 46.9925 73.3864C45.8729 74.5042 44.2143 75.8291 43.3435 76.2845C42.4727 76.7399 41.519 77.4024 41.3531 77.6922C41.1873 78.0234 40.2335 78.8515 39.3213 79.5553C38.3676 80.2177 37.7041 81.0043 37.7871 81.2942C37.9529 81.791 40.1506 83.1159 43.385 84.7305L45.3339 85.6828L44.2558 86.3038C41.6434 87.7529 37.4554 86.6764 35.465 83.9439L34.6357 82.7847L31.111 85.4343C28.5816 87.3802 26.84 88.3325 24.8911 88.8707C21.6982 89.6988 18.3395 89.823 17.5102 89.0364C17.137 88.7051 16.4735 88.2497 16.0588 87.9599C14.649 87.1733 14.2343 85.393 15.1051 84.0681C16.1832 82.412 18.0907 82.4948 19.5005 84.2337C20.1225 84.979 20.8274 85.5586 21.1177 85.5586C21.3665 85.5586 22.3617 84.8547 23.3569 83.9853C24.3106 83.1572 25.2643 82.412 25.5131 82.412C26.3424 82.412 29.7427 78.3546 29.4939 77.6922C29.3695 77.2782 29.2451 76.947 29.2451 76.8228C29.2451 76.74 27.8767 75.9533 26.1351 75.0839C24.435 74.2558 23.0252 73.3864 23.0252 73.2622C23.0252 73.138 23.7301 72.7239 24.6838 72.3927C26.9644 71.3991 28.706 71.8959 30.9866 74.0488L32.977 75.9119L35.4235 73.2622C36.7919 71.8131 38.4505 70.2399 39.1554 69.8258C39.8189 69.4118 40.897 68.2526 41.5605 67.3003L42.763 65.4786L41.7678 64.6506C38.2847 61.8353 31.6916 55.418 28.4157 51.5676C26.3424 49.1249 24.3106 46.8063 23.9374 46.4751C23.5227 46.1025 22.9422 45.2744 22.652 44.6534C22.2788 44.0324 21.2421 42.4177 20.2054 41.0929C17.2614 37.2839 12.7001 28.2169 11.622 24.2423C11.2488 22.9174 11 20.5575 11 18.9842C11 16.1275 12.161 10 12.7001 10C12.866 10 13.7368 11.2421 14.5661 12.7739C17.39 17.7295 21.8446 20.7293 26.4668 23.5798C29.0377 25.1117 29.1207 25.1945 30.1158 28.5067C31.733 33.8889 36.5016 42.9146 39.3213 46.0197C39.8604 46.6407 40.6482 47.7172 41.0214 48.421C41.3946 49.1249 42.9289 51.0708 44.4631 52.7682C46.0388 54.4657 47.4487 56.246 47.6975 56.7842C47.9463 57.3224 48.4853 57.9435 48.9415 58.1505C49.8122 58.7301 50.6415 58.1505 52.8392 55.1281C53.71 53.9275 55.1613 52.1886 55.9492 51.3606C56.737 50.5325 58.0225 48.8764 58.8103 47.7586C59.5567 46.6407 61.3398 44.0324 62.7911 41.9209C64.1595 39.8508 65.3206 37.9049 65.3206 37.6565C65.3206 37.4081 65.984 35.7934 66.7719 34.0959C67.6012 32.357 68.6378 29.7073 69.094 28.1341C69.8403 25.4843 70.0891 25.1945 72.4942 23.6626C77.0576 20.8484 82.0347 17.7197 84.6023 12.8153C85.3487 11.2835 86.178 10 86.3024 10C87.5464 10 88.5415 19.8951 87.6707 23.7868C87.0073 26.8506 81.4509 38.1533 79.6263 40.2234C78.8385 41.0515 77.9262 42.4177 77.636 43.1216C77.2628 43.8668 75.8944 45.6471 74.5675 47.1375C73.1991 48.5866 72.0795 49.9943 72.0795 50.1599C72.0795 50.5739 66.1913 56.7842 64.0766 58.6887C63.2472 59.3925 61.63 60.9244 60.5104 62.0422C59.4323 63.1601 58.1469 64.278 57.6493 64.485C57.1517 64.7334 56.6956 65.1474 56.6127 65.3544C56.5297 65.6028 58.686 68.087 61.4227 70.8195L66.3572 75.8291L68.2646 74.0488C70.6282 71.8545 72.2454 71.5233 74.6919 72.4756L76.5993 73.2208L73.7796 74.6698C72.2453 75.4979 70.5452 76.5743 70.0062 77.1126L68.9695 78.1062L70.8355 80.2591C71.8722 81.4598 72.8674 82.4534 73.0747 82.4534C73.282 82.4534 74.3602 83.2401 75.4797 84.2337C76.5993 85.2274 77.7604 86.014 78.0092 86.014C78.258 85.9726 78.8799 85.3516 79.3775 84.5649C80.0824 83.4471 80.6215 83.1159 81.8655 82.9917C83.2753 82.8675 83.5656 82.9916 84.0632 84.1923C84.7681 85.9726 84.1047 87.6701 82.1558 89.0364C80.3313 90.2784 77.2628 90.3198 73.904 89.1605L73.7381 89.202Z" fill="black"/>
</g>
</svg>
