<svg width="698" height="814" viewBox="0 0 698 814" fill="none" xmlns="http://www.w3.org/2000/svg">
<path d="M-2.60506e-05 595.969L-9.53045e-06 218.031C-9.08144e-06 207.759 5.42889 198.243 14.2896 193.01L334.206 4.04101C343.338 -1.34702 354.662 -1.34702 363.774 4.04101L683.691 193.01C692.571 198.243 698 207.759 698 218.031L698 595.969C698 606.241 692.571 615.757 683.71 620.99L363.794 809.959C354.662 815.347 343.338 815.347 334.226 809.959L14.3089 620.99C5.42881 615.757 -2.64996e-05 606.241 -2.60506e-05 595.969Z" fill="#316058"/>
<path d="M209.153 635C198.309 635 189.306 626.82 188.386 616.02C183.625 560.16 170 399.4 170 387.36C170 259.42 187.886 275.6 189.827 182.28C190.027 172.34 197.449 163.96 207.332 162.78C232.101 159.84 279.596 155 324.671 155C366.445 155 407.859 159.36 431.106 162.32C442.15 163.72 449.913 173.76 448.332 184.78C437.609 260.22 384.431 440.98 470.579 490.46C478.762 495.02 551.066 535.6 571.413 554.14C585.938 567.42 593 583.2 593 602.42C593 610.46 587.138 617.3 579.175 618.52C574.794 619.18 471.04 635 389.293 635C300.863 635 292 566.32 285.518 523.7C280.317 489.3 273.174 475 254.048 475C238.183 475 230.02 495 230.02 515V614.14C230.02 625.66 220.677 635 209.153 635Z" fill="#2D998C"/>
</svg>
