<svg width="698" height="814" viewBox="0 0 698 814" fill="none" xmlns="http://www.w3.org/2000/svg">
<path d="M-2.60506e-05 595.969L-9.53045e-06 218.031C-9.08144e-06 207.759 5.42889 198.243 14.2896 193.01L334.206 4.04101C343.338 -1.34702 354.662 -1.34702 363.774 4.04101L683.691 193.01C692.571 198.243 698 207.759 698 218.031L698 595.969C698 606.241 692.571 615.757 683.71 620.99L363.794 809.959C354.662 815.347 343.338 815.347 334.226 809.959L14.3089 620.99C5.42881 615.757 -2.64996e-05 606.241 -2.60506e-05 595.969Z" fill="#5F3160"/>
<path d="M548.086 169.939L533.141 155L240.569 447.469L208.714 415.625L178.825 445.503L210.849 477.516L136.549 551.79C111.817 576.513 111.817 616.703 136.549 641.426C148.534 653.386 164.451 660 181.404 660C198.356 660 214.273 653.386 226.237 641.426L300.538 567.152L328.313 594.918L358.202 565.039L330.427 537.274L330.85 536.851L330.681 536.682L548.086 319.354C589.305 278.17 589.305 211.123 548.086 169.939ZM215.499 592.403L185.61 562.525L215.499 532.646L245.389 562.525L215.499 592.403Z" fill="#972D99"/>
</svg>
