<svg xmlns="http://www.w3.org/2000/svg" fill="white"  viewBox="0 0 30 30">    <path d="M 6.8789062 5 C 5.3679062 5 4 5.6551719 4 7.4511719 C 4 9.0086345 5.1700077 10.016811 6.3359375 10.628906 C 5.2273382 11.86634 3 14.866408 3 19 C 3 19 4.6 21.95 8.5 23 C 8.5 23 12 27 15 27 C 18 27 21.5 23 21.5 23 C 25.477 22.009 27 19 27 19 C 27 14.866408 24.772662 11.86634 23.664062 10.628906 C 24.829992 10.016811 26 9.0086345 26 7.4511719 C 26 5.6551719 24.632094 5 23.121094 5 C 22.550226 5 21.822973 5.334038 21.253906 5.8144531 C 20.519691 5.2825551 19.602948 5 18.550781 5 C 17.450781 5 15 5.5 15 5.5 C 15 5.5 12.999219 5 11.449219 5 C 10.397052 5 9.4803089 5.2825551 8.7460938 5.8144531 C 8.1770265 5.334038 7.4497735 5 6.8789062 5 z M 9 12 L 12 13 C 12 13.552 11.052 14 10.5 14 C 9.948 14 9 13.500047 9 12.373047 L 9 12 z M 21 12 L 21 12.373047 C 21 13.500047 20.052 14 19.5 14 C 18.948 14 18 13.552 18 13 L 21 12 z M 12 16 L 12 16.587891 C 12 16.587891 14.241 18 15 18 C 15.759 18 18 16.70475 18 16.46875 L 18 16 C 18 16 20 18 20 21 C 20 22 17 25 15 25 C 13 25 10 22 10 21 C 10 18 12 16 12 16 z M 15 21 C 15 21 14.512 21.621 13 22 C 15.216 24.215 17 22 17 22 C 15.904 21.882 15 21 15 21 z"></path></svg>