<svg width="778" height="599" viewBox="0 0 778 599" fill="none" xmlns="http://www.w3.org/2000/svg">
<mask id="mask0" style="mask-type:alpha" maskUnits="userSpaceOnUse" x="0" y="0" width="778" height="599">
<rect width="778" height="599" fill="white"/>
</mask>
<g mask="url(#mask0)">
<path d="M0.891524 515.096H58.1195V531.056H17.4215L17.4215 548.954H53.4455L53.4455 564.914H17.4215L17.4215 583.04H59.7155V599H0.891524L0.891524 515.096ZM71.1173 515.096H127.661V531.056H107.255V599H90.7253V531.056H71.1173V515.096ZM214.18 515.096V599H197.65V564.914L160.144 564.914V599H143.614V515.096H160.144V548.954L197.65 548.954V515.096H214.18ZM235.794 515.096H293.022V531.056H252.324V548.954H288.348V564.914H252.324V583.04H294.618V599H235.794V515.096ZM311.72 599V511.676H311.834L354.356 571.982L397.904 511.676H398.132V599H381.602V558.986L354.242 597.86H354.014L327.68 561.494V599H311.72ZM419.819 515.096H477.047V531.056H436.349V548.954H472.373V564.914H436.349V583.04H478.643V599H419.819V515.096ZM521.167 515.096C531.731 515.096 539.825 517.68 545.449 522.848C551.149 527.94 553.999 534.78 553.999 543.368C553.999 548.156 552.973 552.868 550.921 557.504C548.945 562.14 545.563 565.826 540.775 568.562L560.269 599H541.003L523.333 572.324H512.275V599L495.745 599V515.096L521.167 515.096ZM524.017 556.364C527.361 556.364 529.945 555.68 531.769 554.312C533.669 552.868 534.999 551.196 535.759 549.296C536.519 547.32 536.899 545.534 536.899 543.938C536.899 543.026 536.747 541.886 536.443 540.518C536.215 539.074 535.683 537.63 534.847 536.186C534.011 534.742 532.719 533.526 530.971 532.538C529.299 531.55 527.019 531.056 524.131 531.056L512.275 531.056V556.364H524.017ZM564.435 599L602.283 511.79H603.195L641.043 599H621.891L615.393 582.584H587.577L580.737 599H564.435ZM593.391 568.676H609.921L601.827 548.27L593.391 568.676ZM653.274 515.096H669.804V583.04H709.248V599H653.274V515.096ZM771.108 535.388C767.916 533.64 764.648 532.196 761.304 531.056C758.036 529.916 754.958 529.346 752.07 529.346C748.498 529.346 745.686 530.068 743.634 531.512C741.582 532.956 740.556 535.122 740.556 538.01C740.556 539.986 741.316 541.772 742.836 543.368C744.432 544.888 746.446 546.256 748.878 547.472C751.386 548.688 753.97 549.79 756.63 550.778C759.898 551.994 763.052 553.552 766.092 555.452C769.132 557.276 771.64 559.822 773.616 563.09C775.592 566.282 776.58 570.538 776.58 575.858C776.58 580.114 775.478 584.066 773.274 587.714C771.07 591.362 767.84 594.326 763.584 596.606C759.328 598.81 754.084 599.912 747.852 599.912C743.064 599.912 738.162 599.19 733.146 597.746C728.206 596.302 723.532 594.022 719.124 590.906L726.42 578.024C729.308 580.152 732.614 581.9 736.338 583.268C740.062 584.636 743.406 585.32 746.37 585.32C748.346 585.32 750.322 585.054 752.298 584.522C754.35 583.914 756.022 582.926 757.314 581.558C758.682 580.19 759.366 578.29 759.366 575.858C759.366 573.35 758.15 571.184 755.718 569.36C753.362 567.46 750.512 565.864 747.168 564.572C744.584 563.584 741.924 562.444 739.188 561.152C736.452 559.86 733.868 558.302 731.436 556.478C729.08 554.578 727.142 552.26 725.622 549.524C724.178 546.712 723.456 543.292 723.456 539.264C723.456 534.4 724.52 530.182 726.648 526.61C728.852 523.038 731.93 520.226 735.882 518.174C739.834 516.046 744.394 514.868 749.562 514.64C756.326 514.64 761.798 515.438 765.978 517.034C770.234 518.63 774.034 520.53 777.378 522.734L771.108 535.388Z" fill="white"/>
<path d="M272.547 157.889C285.652 186.444 273.595 188.539 262.325 170.201C251.054 151.863 239.259 71.9616 300.33 33.7137C330.331 14.9247 357.732 6.99253 364.023 11.1841C370.313 15.3756 347.457 11.1841 323.134 36.5954C308.456 51.9304 300.33 82.7025 300.33 98.6828C300.33 114.663 290.108 124.094 282.769 118.593C275.43 113.091 259.442 129.334 272.547 157.889Z" fill="white" fill-opacity="0.6"/>
<path d="M381.322 72.223C381.322 68.5919 386.302 68.799 383.681 65.9357C377.462 59.1422 359.567 59.9103 342.268 68.799C324.969 77.6877 318.331 89.4282 317.63 88.7272C316.928 88.0263 318.484 74.3188 344.627 57.5525C370.77 40.7863 397.834 37.3807 421.162 38.6905C443.981 39.9718 481.732 40.7864 516.045 75.6286C581.834 142.432 514.996 257.614 453.401 284.945C391.806 312.275 334.142 297.781 330.735 288.874C327.328 279.967 350.381 298.567 366.382 278.919C382.382 259.271 362.974 260.267 367.168 257.961C372.672 254.936 382.632 259.009 383.681 268.178C384.729 277.347 372.41 299.567 409.891 287.302C455.052 272.525 519.766 227.049 500.581 155.53C487.75 107.699 441.082 98.6208 425.094 87.6794C396 67.7695 381.322 75.8541 381.322 72.223Z" fill="white" fill-opacity="0.6"/>
<path fill-rule="evenodd" clip-rule="evenodd" d="M476.991 22.4486C489.572 34.7612 480.923 53.0993 473.059 34.2373C465.196 15.3753 435.054 -10.036 361.402 4.11052C287.749 18.257 239.259 84.2741 237.949 143.218C236.714 198.782 260.633 213.84 270.405 219.993C271 220.367 271.542 220.708 272.023 221.024C270.974 226.525 267.305 251.413 305.048 281.015C342.792 310.618 410.678 308.523 448.683 293.328C486.689 278.134 522.86 241.195 536.751 196.136C550.643 151.077 544.811 101.499 518.388 78.0849C539.372 98.8135 553.002 163.783 513.424 216.308C514.734 210.807 511.145 200.149 503.988 212.379C495.863 226.263 472.273 262.939 439.51 268.965C406.746 274.99 415.134 223.73 443.179 207.925C471.225 192.12 508.785 167.319 518.443 119.116C528.102 70.9134 496.125 21.6626 476.991 22.4486ZM393.641 104.446C376.337 123.049 356.946 121.998 359.567 103.136C330.874 117.408 318.082 131.951 308.7 142.617C299.655 152.899 293.781 159.577 279.886 158.936C264.684 158.235 255.248 134.311 256.558 114.139C257.869 93.9672 265.994 57.8151 294.826 39.2151C323.658 20.6151 349.869 14.3277 361.664 17.4714C364.13 18.1287 365.823 18.8178 367.383 19.4529C371.715 21.216 375.026 22.5635 391.02 21.663C412.774 20.438 442.131 52.3137 393.641 104.446ZM408.581 220.238C413.667 217.624 419.881 209.535 426.597 200.791L426.597 200.791C431.995 193.763 437.718 186.312 443.441 180.942C456.285 168.892 456.233 178.723 451.304 186.706C447.874 192.263 442.735 197.927 437.237 203.986L437.237 203.986C430.553 211.353 423.338 219.304 418.017 228.359C411.984 238.627 405.436 250.627 408.581 263.726C409.819 268.883 413.13 271.847 415.777 274.218C419.853 277.867 422.357 280.109 413.299 286.779C398.359 297.782 368.216 303.142 340.957 289.137C313.698 275.133 307.669 252.199 331.783 231.503C355.897 210.807 397.048 205.568 395.475 214.475C393.903 223.382 399.407 224.954 408.581 220.238Z" fill="white"/>
<path d="M409.321 388.006C421.883 347.343 516.378 281.591 574.726 260.035C633.074 238.479 689.386 196.38 722.484 157.478C759.872 116.217 763.91 69.5728 763.91 69.5728C785.894 117.413 785.296 254.952 738.635 297.709C691.975 340.466 614.046 336.323 523.579 359.901C523.579 359.901 405.51 400.341 409.321 388.006Z" fill="white" fill-opacity="0.6"/>
<path d="M526.121 388.455C467.646 389.95 431.305 430.016 426.444 457.15C426.444 457.15 418.754 465.49 408.498 472.997C398.242 480.503 388.907 485.256 388.907 485.256L385.168 455.804C386.813 428.82 384.835 442.273 387.336 425.232C393.767 381.428 448.503 332.094 518.793 302.941C589.083 273.789 636.94 273.49 664.009 247.626C664.009 247.626 655.185 269.752 644.118 285.3C633.051 300.848 615.703 311.911 615.703 311.911C615.703 311.911 637.089 310.267 671.486 318.938C705.883 327.609 738.785 346.595 738.785 346.595C727.568 357.06 668.645 388.455 634.248 389.053C599.851 389.651 584.596 386.96 526.121 388.455Z" fill="white"/>
<path d="M368.493 388.006C355.93 347.343 261.435 281.591 203.087 260.035C144.74 238.479 88.4268 196.38 55.3293 157.478C17.9411 116.217 13.9033 69.5728 13.9033 69.5728C-8.08096 117.413 -7.48279 254.952 39.1777 297.709C85.8381 340.466 163.767 336.323 254.234 359.901C254.234 359.901 372.303 400.341 368.493 388.006Z" fill="white" fill-opacity="0.6"/>
<path d="M251.692 388.455C310.167 389.95 346.508 430.016 351.369 457.15C351.369 457.15 359.059 465.49 369.315 472.997C379.571 480.503 388.907 485.256 388.907 485.256L392.646 455.804C391 428.82 392.979 442.273 390.477 425.232C384.046 381.428 329.31 332.094 259.02 302.941C188.73 273.789 140.874 273.49 113.804 247.626C113.804 247.626 122.628 269.752 133.695 285.3C144.762 300.848 162.11 311.911 162.11 311.911C162.11 311.911 140.724 310.267 106.327 318.938C71.9297 327.609 39.0282 346.595 39.0282 346.595C50.2447 357.06 109.168 388.455 143.565 389.053C177.963 389.651 193.217 386.96 251.692 388.455Z" fill="white"/>
</g>
</svg>
