<svg width="267" height="206" viewBox="0 0 267 206" fill="none" xmlns="http://www.w3.org/2000/svg">
<path d="M0.704224 205.371H19.7692V200.287H6.77222V192.169H17.4322V187.085H6.77222V180.074H19.3182V174.99H0.704224V205.371Z" fill="white"/>
<path d="M32.1608 205.371H38.2288V180.074H46.8388V174.99H23.6328V180.074H32.1608V205.371Z" fill="white"/>
<path d="M51.9638 205.371H58.0318V192.251H69.5118V205.371H75.5388V174.99H69.5118V186.962H58.0318V174.99H51.9638V205.371Z" fill="white"/>
<path d="M83.1991 205.371H102.264V200.287H89.2671V192.169H99.9271V187.085H89.2671V180.074H101.813V174.99H83.1991V205.371Z" fill="white"/>
<path d="M108.629 205.371H114.082V192.702C114.082 189.832 113.59 185.609 113.303 182.739H113.467L115.886 189.873L120.601 202.624H124.086L128.76 189.873L131.22 182.739H131.425C131.097 185.609 130.646 189.832 130.646 192.702V205.371H136.181V174.99H129.457L124.414 189.217C123.758 191.103 123.225 193.112 122.569 195.039H122.364C121.749 193.112 121.175 191.103 120.519 189.217L115.353 174.99H108.629V205.371Z" fill="white"/>
<path d="M143.828 205.371H162.893V200.287H149.896V192.169H160.556V187.085H149.896V180.074H162.442V174.99H143.828V205.371Z" fill="white"/>
<path d="M169.257 205.371H175.325V193.891H179.548L185.78 205.371H192.545L185.452 192.948C188.937 191.595 191.233 188.766 191.233 184.215C191.233 177.245 186.19 174.99 179.835 174.99H169.257V205.371ZM175.325 189.094V179.828H179.261C183.156 179.828 185.329 180.935 185.329 184.215C185.329 187.454 183.156 189.094 179.261 189.094H175.325Z" fill="white"/>
<path d="M203.69 189.545C204.592 186.388 205.494 182.944 206.273 179.623H206.478C207.339 182.903 208.159 186.388 209.102 189.545L210.004 192.866H202.788L203.69 189.545ZM193.194 205.371H199.344L201.476 197.581H211.316L213.448 205.371H219.803L210.045 174.99H202.911L193.194 205.371Z" fill="white"/>
<path d="M223.56 205.371H241.969V200.287H229.628V174.99H223.56V205.371Z" fill="white"/>
<path d="M255.288 205.945C262.299 205.945 266.44 201.722 266.44 196.761C266.44 192.374 264.021 190.037 260.331 188.52L256.354 186.839C253.771 185.814 251.639 185.035 251.639 182.862C251.639 180.853 253.32 179.664 255.985 179.664C258.486 179.664 260.495 180.566 262.422 182.165L265.497 178.352C263.037 175.851 259.511 174.457 255.985 174.457C249.835 174.457 245.489 178.27 245.489 183.231C245.489 187.659 248.564 190.119 251.639 191.39L255.698 193.112C258.404 194.26 260.249 194.957 260.249 197.212C260.249 199.344 258.568 200.697 255.411 200.697C252.746 200.697 249.876 199.344 247.703 197.335L244.218 201.517C247.17 204.346 251.229 205.945 255.288 205.945Z" fill="white"/>
<path d="M93.5628 55.1038C98.059 64.9034 93.9225 65.6226 90.0558 59.3293C86.1891 53.0359 82.1425 25.615 103.095 12.4889C113.387 6.04076 122.788 3.31857 124.946 4.75705C127.104 6.19552 119.263 4.75706 110.918 13.4778C105.882 18.7405 103.095 29.3011 103.095 34.7853C103.095 40.2694 99.5877 43.506 97.0698 41.618C94.552 39.73 89.0666 45.3041 93.5628 55.1038Z" fill="white" fill-opacity="0.6"/>
<path d="M130.881 25.7048C130.881 24.4587 132.59 24.5298 131.69 23.5471C129.557 21.2157 123.417 21.4793 117.483 24.5298C111.548 27.5803 109.27 31.6094 109.03 31.3688C108.789 31.1283 109.323 26.4241 118.292 20.6702C127.261 14.9163 136.546 13.7475 144.55 14.197C152.378 14.6367 165.33 14.9163 177.102 26.8736C199.673 49.7993 176.742 89.328 155.61 98.7076C134.478 108.087 114.695 103.113 113.526 100.056C112.357 96.9994 120.266 103.383 125.756 96.6397C131.245 89.8969 124.586 90.2385 126.025 89.4474C127.914 88.409 131.331 89.807 131.69 92.9537C132.05 96.1003 127.824 103.726 140.683 99.5167C156.177 94.4454 178.378 78.8386 171.796 54.2946C167.394 37.8797 151.384 34.7642 145.898 31.0092C135.917 24.1765 130.881 26.951 130.881 25.7048Z" fill="white" fill-opacity="0.6"/>
<path fill-rule="evenodd" clip-rule="evenodd" d="M163.703 8.62288C168.02 12.8484 165.052 19.1418 162.355 12.6686C159.657 6.19545 149.316 -2.52531 124.047 2.32955C98.7785 7.18441 82.1426 29.8404 81.6929 50.069C81.2691 69.1378 89.4753 74.3055 92.8281 76.417C93.0321 76.5454 93.218 76.6625 93.383 76.7708C93.0233 78.6588 91.7644 87.1998 104.713 97.359C117.662 107.518 140.953 106.799 153.992 101.585C167.031 96.3701 179.44 83.6934 184.206 68.2298C188.972 52.7662 186.971 35.7517 177.906 27.7164C185.105 34.8301 189.781 57.1265 176.203 75.1525C176.652 73.2645 175.421 69.6068 172.965 73.8039C170.178 78.5688 162.085 91.1556 150.844 93.2234C139.604 95.2912 142.481 77.6994 152.103 72.2755C161.725 66.8516 174.611 58.3403 177.925 41.7978C181.238 25.2553 170.268 8.35317 163.703 8.62288ZM135.108 36.763C129.171 43.1474 122.518 42.7866 123.418 36.3135C113.574 41.2115 109.185 46.2024 105.966 49.8626C102.863 53.3912 100.848 55.6832 96.0807 55.4632C90.8652 55.2225 87.6279 47.0122 88.0775 40.0895C88.5271 33.1668 91.3148 20.76 101.206 14.3767C111.098 7.99349 120.09 5.83578 124.137 6.91463C124.983 7.14021 125.564 7.37669 126.099 7.59466C127.585 8.19972 128.721 8.66217 134.208 8.35311C141.672 7.93271 151.744 18.872 135.108 36.763ZM146.414 69.8271C148.266 67.4152 150.23 64.8582 152.193 63.0153C156.599 58.8797 156.582 62.2537 154.891 64.9932C153.714 66.9003 151.951 68.844 150.065 70.9235C147.771 73.4516 145.296 76.1805 143.471 79.2881C141.401 82.8118 139.154 86.93 140.233 91.4253C140.658 93.1952 141.794 94.2125 142.702 95.0259C144.101 96.2785 144.959 97.0476 141.852 99.3369C136.726 103.113 126.385 104.952 117.033 100.146C107.681 95.3399 105.613 87.4695 113.886 80.367C122.159 73.2645 136.277 71.4664 135.737 74.5232C135.198 77.5799 137.086 78.1194 140.233 76.5011C141.978 75.6039 144.11 72.8277 146.414 69.8271Z" fill="white"/>
<path d="M140.487 134.077C144.797 120.121 177.216 97.5564 197.234 90.1588C217.252 82.7613 236.572 68.3135 247.927 54.963C260.754 40.8026 262.139 24.7952 262.139 24.7952C269.682 41.213 269.476 88.4144 253.468 103.088C237.46 117.761 210.724 116.34 179.687 124.431C179.687 124.431 139.18 138.31 140.487 134.077Z" fill="white" fill-opacity="0.6"/>
<path d="M126.48 134.077C122.17 120.121 89.7506 97.5564 69.7327 90.1588C49.7148 82.7613 30.395 68.3135 19.0399 54.963C6.2128 40.8026 4.8275 24.7952 4.8275 24.7952C-2.71483 41.213 -2.50962 88.4144 13.4986 103.088C29.5069 117.761 56.2428 116.34 87.2802 124.431C87.2802 124.431 127.787 138.31 126.48 134.077Z" fill="white" fill-opacity="0.6"/>
<path d="M180.559 134.231C160.497 134.744 148.029 148.494 146.362 157.806C146.362 157.806 143.723 160.668 140.205 163.244C136.686 165.82 133.483 167.451 133.483 167.451L132.201 157.344C132.765 148.083 132.086 152.7 132.945 146.852C135.151 131.819 153.93 114.888 178.045 104.884C202.16 94.879 218.578 94.7764 227.865 85.9005C227.865 85.9005 224.838 93.4937 221.041 98.8295C217.244 104.165 211.293 107.962 211.293 107.962C211.293 107.962 218.63 107.398 230.431 110.373C242.232 113.349 253.519 119.865 253.519 119.865C249.671 123.456 229.456 134.231 217.655 134.436C205.854 134.641 200.62 133.718 180.559 134.231Z" fill="white"/>
<path d="M86.4079 134.231C106.469 134.744 118.937 148.494 120.605 157.806C120.605 157.806 123.243 160.668 126.762 163.244C130.281 165.82 133.483 167.451 133.483 167.451L134.766 157.344C134.202 148.083 134.88 152.7 134.022 146.852C131.816 131.819 113.037 114.888 88.922 104.884C64.807 94.879 48.3883 94.7764 39.1015 85.9005C39.1015 85.9005 42.1287 93.4937 45.9255 98.8295C49.7223 104.165 55.6741 107.962 55.6741 107.962C55.6741 107.962 48.337 107.398 36.536 110.373C24.7351 113.349 13.4473 119.865 13.4473 119.865C17.2954 123.456 37.5109 134.231 49.3119 134.436C61.1128 134.641 66.3463 133.718 86.4079 134.231Z" fill="white"/>
</svg>
