<svg width="2254" height="865" viewBox="0 0 2254 865" fill="none" xmlns="http://www.w3.org/2000/svg">
<path d="M980.73 197.868C997.154 233.654 982.044 236.28 967.92 213.299C953.795 190.317 939.014 90.1834 1015.55 42.2506C1053.15 18.7039 1087.49 8.76324 1095.37 14.0161C1103.25 19.269 1074.61 14.0162 1044.13 45.862C1025.73 65.0799 1015.55 103.644 1015.55 123.671C1015.55 143.697 1002.74 155.516 993.541 148.622C984.344 141.728 964.307 162.083 980.73 197.868Z" fill="#9C00D3"/>
<path d="M1117.05 90.5109C1117.05 85.9603 1123.29 86.2199 1120 82.6315C1112.21 74.1179 1089.78 75.0805 1068.11 86.2199C1046.43 97.3594 1038.11 112.073 1037.23 111.194C1036.35 110.316 1038.3 93.1374 1071.06 72.1257C1103.82 51.114 1137.74 46.846 1166.98 48.4876C1195.57 50.0933 1242.88 51.1141 1285.89 94.7789C1368.33 178.497 1284.57 322.845 1207.38 357.096C1130.19 391.348 1057.92 373.183 1053.65 362.021C1049.38 350.858 1078.27 374.168 1098.32 349.545C1118.38 324.922 1094.05 326.17 1099.31 323.281C1106.21 319.489 1118.69 324.594 1120 336.085C1121.32 347.575 1105.88 375.421 1152.85 360.051C1209.45 341.532 1290.55 284.54 1266.5 194.913C1250.43 134.97 1191.94 123.593 1171.9 109.881C1135.44 84.9297 1117.05 95.0615 1117.05 90.5109Z" fill="#9C00D3"/>
<path fill-rule="evenodd" clip-rule="evenodd" d="M1236.94 28.1328C1252.71 43.5633 1241.87 66.5448 1232.02 42.9067C1222.16 19.2686 1184.39 -12.5772 1092.08 5.15135C999.782 22.8799 939.014 105.613 937.371 179.482C935.823 249.116 965.799 267.987 978.047 275.698C978.791 276.167 979.471 276.594 980.073 276.99C978.76 283.884 974.161 315.074 1021.46 352.172C1068.76 389.271 1153.84 386.645 1201.47 367.603C1249.1 348.561 1294.43 302.269 1311.83 245.801C1329.24 189.332 1321.94 127.2 1288.82 97.8571C1315.12 123.834 1332.2 205.255 1282.6 271.08C1284.24 264.186 1279.74 250.829 1270.78 266.156C1260.59 283.556 1231.03 329.519 1189.97 337.07C1148.91 344.621 1159.42 280.381 1194.57 260.574C1229.72 240.768 1276.79 209.687 1288.89 149.278C1301 88.8697 1260.92 27.1479 1236.94 28.1328ZM1132.49 130.893C1110.8 154.207 1086.5 152.89 1089.78 129.252C1053.83 147.138 1037.79 165.363 1026.04 178.729C1014.7 191.615 1007.34 199.984 989.928 199.181C970.876 198.302 959.051 168.32 960.693 143.041C962.336 117.761 972.518 72.4546 1008.65 49.1448C1044.78 25.835 1077.63 17.9557 1092.41 21.8953C1095.5 22.7191 1097.62 23.5826 1099.58 24.3786C1105.01 26.5881 1109.16 28.2769 1129.2 27.1483C1156.47 25.6131 1193.25 65.5601 1132.49 130.893ZM1151.21 276.005C1157.58 272.729 1165.37 262.592 1173.79 251.634C1180.55 242.826 1187.72 233.489 1194.9 226.759C1210.99 211.657 1210.93 223.978 1204.75 233.982C1200.45 240.946 1194.01 248.044 1187.12 255.638L1187.12 255.638L1187.12 255.638C1178.74 264.87 1169.7 274.835 1163.04 286.183C1155.47 299.051 1147.27 314.089 1151.21 330.505C1152.76 336.968 1156.91 340.683 1160.23 343.653C1165.34 348.227 1168.47 351.036 1157.12 359.396C1138.4 373.185 1100.62 379.901 1066.46 362.35C1032.3 344.8 1024.75 316.059 1054.97 290.123C1085.19 264.186 1136.76 257.62 1134.79 268.783C1132.82 279.945 1139.71 281.915 1151.21 276.005Z" fill="#F900D1"/>
<path d="M1152.14 486.255C1167.88 435.294 1286.3 352.893 1359.42 325.879C1432.55 298.865 1503.12 246.106 1544.6 197.354C1591.45 145.644 1596.51 87.1895 1596.51 87.1895C1624.06 147.143 1623.31 319.509 1564.84 373.093C1506.36 426.676 1408.7 421.484 1295.33 451.032C1295.33 451.032 1147.36 501.712 1152.14 486.255Z" fill="#F900D1"/>
<path d="M1298.51 486.817C1225.23 488.69 1179.69 538.901 1173.6 572.906C1173.6 572.906 1163.96 583.359 1151.11 592.766C1138.25 602.173 1126.55 608.129 1126.55 608.129L1121.87 571.22C1123.93 537.403 1121.45 554.263 1124.59 532.906C1132.64 478.011 1201.24 416.184 1289.33 379.65C1377.42 343.116 1437.39 342.741 1471.32 310.329C1471.32 310.329 1460.26 338.057 1446.39 357.542C1432.52 377.027 1410.78 390.891 1410.78 390.891C1410.78 390.891 1437.58 388.83 1480.69 399.697C1523.79 410.564 1565.03 434.358 1565.03 434.358C1550.97 447.472 1477.13 486.817 1434.02 487.566C1390.91 488.316 1371.79 484.943 1298.51 486.817Z" fill="#9C00D3"/>
<path d="M1100.97 486.255C1085.23 435.294 966.805 352.893 893.682 325.879C820.56 298.865 749.988 246.106 708.51 197.354C661.655 145.644 656.594 87.1895 656.594 87.1895C629.043 147.143 629.793 319.509 688.269 373.093C746.744 426.676 844.406 421.484 957.781 451.032C957.781 451.032 1105.75 501.712 1100.97 486.255Z" fill="#F900D1"/>
<path d="M954.595 486.817C1027.88 488.69 1073.42 538.901 1079.51 572.906C1079.51 572.906 1089.15 583.359 1102 592.766C1114.85 602.173 1126.55 608.129 1126.55 608.129L1131.24 571.22C1129.18 537.403 1131.66 554.263 1128.52 532.906C1120.46 478.011 1051.87 416.184 963.778 379.65C875.69 343.116 815.715 342.741 781.792 310.329C781.792 310.329 792.85 338.057 806.719 357.542C820.588 377.027 842.329 390.891 842.329 390.891C842.329 390.891 815.528 388.83 772.421 399.697C729.314 410.564 688.081 434.358 688.081 434.358C702.138 447.472 775.982 486.817 819.089 487.566C862.196 488.316 881.313 484.943 954.595 486.817Z" fill="#9C00D3"/>
<path d="M154.094 650.032L298.67 650.032V690.352H195.854V735.568L286.862 735.568V775.888L195.854 775.888V821.68L302.702 821.68V862L154.094 862L154.094 650.032ZM331.507 650.032H474.355V690.352H422.803V862H381.043V690.352H331.507V650.032ZM692.929 650.032V862H651.169V775.888H556.417V862H514.657V650.032L556.417 650.032V735.568H651.169V650.032H692.929ZM747.532 650.032L892.108 650.032V690.352H789.292V735.568H880.3V775.888H789.292V821.68H896.14V862H747.532V650.032ZM939.344 862V641.392H939.632L1047.06 793.744L1157.07 641.392H1157.65V862H1115.89V760.912L1046.77 859.12H1046.19L979.664 767.248V862H939.344ZM1212.44 650.032L1357.01 650.032V690.352H1254.2V735.568H1345.21V775.888H1254.2V821.68H1361.05V862H1212.44V650.032ZM1468.47 650.032C1495.16 650.032 1515.61 656.56 1529.82 669.616C1544.22 682.48 1551.42 699.76 1551.42 721.456C1551.42 733.552 1548.83 745.456 1543.64 757.168C1538.65 768.88 1530.11 778.192 1518.01 785.104L1567.26 862H1518.59L1473.95 794.608H1446.01V862H1404.25V650.032H1468.47ZM1475.67 754.288C1484.12 754.288 1490.65 752.56 1495.26 749.104C1500.06 745.456 1503.42 741.232 1505.34 736.432C1507.26 731.44 1508.22 726.928 1508.22 722.896C1508.22 720.592 1507.83 717.712 1507.07 714.256C1506.49 710.608 1505.15 706.96 1503.03 703.312C1500.92 699.664 1497.66 696.592 1493.24 694.096C1489.02 691.6 1483.26 690.352 1475.96 690.352H1446.01V754.288H1475.67ZM1577.78 862L1673.4 641.68H1675.7L1771.32 862H1722.94L1706.52 820.528H1636.25L1618.97 862H1577.78ZM1650.94 785.392H1692.7L1672.25 733.84L1650.94 785.392ZM1802.22 650.032H1843.98V821.68L1943.63 821.68V862L1802.22 862V650.032ZM2099.9 701.296C2091.84 696.88 2083.58 693.232 2075.14 690.352C2066.88 687.472 2059.1 686.032 2051.81 686.032C2042.78 686.032 2035.68 687.856 2030.5 691.504C2025.31 695.152 2022.72 700.624 2022.72 707.92C2022.72 712.912 2024.64 717.424 2028.48 721.456C2032.51 725.296 2037.6 728.752 2043.74 731.824C2050.08 734.896 2056.61 737.68 2063.33 740.176C2071.58 743.248 2079.55 747.184 2087.23 751.984C2094.91 756.592 2101.25 763.024 2106.24 771.28C2111.23 779.344 2113.73 790.096 2113.73 803.536C2113.73 814.288 2110.94 824.272 2105.38 833.488C2099.81 842.704 2091.65 850.192 2080.9 855.952C2070.14 861.52 2056.9 864.304 2041.15 864.304C2029.06 864.304 2016.67 862.48 2004 858.832C1991.52 855.184 1979.71 849.424 1968.58 841.552L1987.01 809.008C1994.3 814.384 2002.66 818.8 2012.06 822.256C2021.47 825.712 2029.92 827.44 2037.41 827.44C2042.4 827.44 2047.39 826.768 2052.38 825.424C2057.57 823.888 2061.79 821.392 2065.06 817.936C2068.51 814.48 2070.24 809.68 2070.24 803.536C2070.24 797.2 2067.17 791.728 2061.02 787.12C2055.07 782.32 2047.87 778.288 2039.42 775.024C2032.9 772.528 2026.18 769.648 2019.26 766.384C2012.35 763.12 2005.82 759.184 1999.68 754.576C1993.73 749.776 1988.83 743.92 1984.99 737.008C1981.34 729.904 1979.52 721.264 1979.52 711.088C1979.52 698.8 1982.21 688.144 1987.58 679.12C1993.15 670.096 2000.93 662.992 2010.91 657.808C2020.9 652.432 2032.42 649.456 2045.47 648.88C2062.56 648.88 2076.38 650.896 2086.94 654.928C2097.7 658.96 2107.3 663.76 2115.74 669.328L2099.9 701.296Z" fill="#9C00D3"/>
</svg>
